<svg xmlns="http://www.w3.org/2000/svg" width="39" height="47" xmlns:v="https://vecta.io/nano"><path d="M19.5 0c-1.544 0-3.091.487-4.409 1.46l-2.024 1.489H2.25C1.014 2.949 0 3.976 0 5.228v39.494C0 45.974 1.014 47 2.25 47h34.5c1.236 0 2.25-1.026 2.25-2.279V5.228c0-1.252-1.014-2.278-2.25-2.278H25.934L23.909 1.46C22.591.487 21.044.003 19.5 0zm0 1.525c1.236 0 2.476.389 3.533 1.166l.352.258 2.057 1.519.63.463c.583.424.929 1.116.929 1.845v1.489c0 .418-.337.76-.75.76h-13.5c-.413 0-.75-.341-.75-.76V6.776c0-.73.346-1.421.929-1.845l.63-.463 2.057-1.519.352-.258c1.058-.777 2.297-1.166 3.533-1.166zm0 .665c-1.242 0-2.25 1.021-2.25 2.279s1.008 2.279 2.25 2.279 2.25-1.021 2.25-2.278S20.742 2.19 19.5 2.19zM2.25 4.468h9.023c-.495.653-.773 1.466-.773 2.308v.73H6c-.826 0-1.5.682-1.5 1.519v31.899c0 .837.674 1.519 1.5 1.519h21.129a2.21 2.21 0 0 0 1.588-.667l5.124-5.189c.425-.424.659-1.003.659-1.608V9.025c0-.837-.674-1.519-1.5-1.519h-4.5v-.73c0-.843-.278-1.655-.773-2.308h9.023c.413 0 .75.341.75.76v39.494c0 .418-.337.76-.75.76H2.25c-.413 0-.75-.341-.75-.76V5.228c0-.418.337-.76.75-.76zM6 9.025h4.635c.308.881 1.14 1.519 2.115 1.519h13.5c.976 0 1.808-.638 2.115-1.519H33v25.823h-4.5c-.826 0-1.5.682-1.5 1.519v4.557H6V9.025zm2.25 3.038c-.416 0-.75.341-.75.759v1.519c0 .418.334.76.75.76s.75-.341.75-.76v-1.519c0-.418-.334-.759-.75-.759zm3.75 0c-.416 0-.75.341-.75.759v1.519c0 .418.334.76.75.76s.75-.341.75-.76v-1.519c0-.418-.334-.759-.75-.759zm3.75 0c-.416 0-.75.341-.75.759v1.519c0 .418.334.76.75.76s.75-.341.75-.76v-1.519c0-.418-.334-.759-.75-.759zm3.75 0c-.416 0-.75.341-.75.759v1.519c0 .418.334.76.75.76s.75-.341.75-.76v-1.519c0-.418-.334-.759-.75-.759zm3.75 0c-.416 0-.75.341-.75.759v1.519c0 .418.334.76.75.76s.75-.341.75-.76v-1.519c0-.418-.334-.759-.75-.759zm3.75 0c-.416 0-.75.341-.75.759v1.519c0 .418.334.76.75.76s.75-.341.75-.76v-1.519c0-.418-.334-.759-.75-.759zm3.75 0c-.416 0-.75.341-.75.759v1.519c0 .418.334.76.75.76s.75-.341.75-.76v-1.519c0-.418-.334-.759-.75-.759zm-1.5 7.595c-.19 0-.384.074-.53.223l-2.47 2.501-.97-.982c-.293-.297-.768-.297-1.061 0s-.293.777 0 1.074l1.5 1.519a.74.74 0 0 0 1.061 0l3-3.038c.293-.297.293-.777 0-1.074-.146-.148-.34-.223-.53-.223zM10.5 21.177c-.416 0-.75.341-.75.759s.334.76.75.76H15c.416 0 .75-.341.75-.76s-.334-.759-.75-.759h-4.5zm7.5 0c-.416 0-.75.341-.75.759s.334.76.75.76h3c.416 0 .75-.341.75-.76s-.334-.759-.75-.759h-3zm7.5 6.076c-.19 0-.384.074-.53.223-.293.297-.293.777 0 1.074l.97.982-.97.982c-.293.297-.293.777 0 1.074a.74.74 0 0 0 1.061 0l.97-.982.97.982a.74.74 0 0 0 1.061 0c.293-.297.293-.777 0-1.074l-.97-.982.97-.982c.293-.297.293-.777 0-1.074s-.768-.297-1.061 0l-.97.982-.97-.982c-.146-.148-.34-.223-.53-.223zm-15 1.519c-.416 0-.75.341-.75.76s.334.759.75.759H21c.416 0 .75-.341.75-.759s-.334-.76-.75-.76H10.5zm18 7.595h3.442L28.5 39.853v-3.486z" fill="#20a6d2"/></svg>