<svg xmlns="http://www.w3.org/2000/svg" width="47" height="47" xmlns:v="https://vecta.io/nano"><path d="M9.224 0a.94.94 0 0 0-.764.94v1.88c-.004.338.173.654.466.826a.95.95 0 0 0 .947 0c.294-.173.47-.488.466-.826v-.94h32.9V23.5h-3.848l1.028-1.88-1.028-1.88H31.02v3.76H20.68h-.088c-.518.026-.922.466-.896.984s.466.922.984.896h24.44v.94H20.68c-.338-.004-.654.173-.826.466a.95.95 0 0 0 0 .947c.173.294.488.47.826.466h25.38a.94.94 0 0 0 .94-.94v-2.82a.94.94 0 0 0-.94-.94h-.94V.94a.94.94 0 0 0-.94-.94H9.4h-.088-.088zm2.056 4.7a5.66 5.66 0 0 0-5.64 5.64 5.66 5.66 0 0 0 5.64 5.64 5.66 5.66 0 0 0 5.64-5.64 5.66 5.66 0 0 0-5.64-5.64zm0 11.28H9.106c-.709 0-1.74.088-2.702.734S4.7 18.605 4.7 20.386v10.105c-1.652.731-2.82 2.376-2.82 4.289 0 1.425.665 2.691 1.674 3.554C1.45 39.436 0 41.657 0 44.18v1.88a.94.94 0 0 0 .94.94h11.28.088H34.78h.088H46.06a.94.94 0 0 0 .94-.94v-1.88c0-2.523-1.45-4.744-3.554-5.846 1.01-.863 1.674-2.13 1.674-3.554 0-2.585-2.115-4.7-4.7-4.7s-4.7 2.115-4.7 4.7c0 1.425.665 2.691 1.674 3.554-1.072.562-1.99 1.436-2.614 2.468-.628-1.047-1.531-1.898-2.614-2.468 1.01-.863 1.674-2.13 1.674-3.554 0-2.585-2.115-4.7-4.7-4.7s-4.7 2.115-4.7 4.7c0 1.425.665 2.691 1.674 3.554-1.072.562-1.99 1.436-2.614 2.468a6.68 6.68 0 0 0-2.614-2.468c1.01-.863 1.674-2.13 1.674-3.554 0-2.262-1.623-4.171-3.76-4.612V21.62l4.024-1.439.029-.029c.007-.004.022.004.029 0 .8-.242 1.458-.672 1.909-1.263h.029l4.7-6.081v-.029c.867-1.153.734-2.857-.47-3.76-.576-.433-1.285-.602-1.968-.529s-1.34.397-1.792.999l-4.024 5.199-6.227 1.293h-3.76zm0-9.4c2.089 0 3.76 1.671 3.76 3.76s-1.671 3.76-3.76 3.76-3.76-1.671-3.76-3.76 1.671-3.76 3.76-3.76zm16.009 3.789c.206-.026.441.015.617.147.294.22.356.764.117 1.116-.007.007.007.022 0 .029l-4.7 6.081v.029c-.103.136-.551.452-1.028.588-.018.007-.04.018-.059.029l-4.7 1.674a.94.94 0 0 0-.617.911v9.194c-2.137.441-3.76 2.35-3.76 4.612 0 1.425.665 2.691 1.674 3.554-1.072.562-1.99 1.436-2.614 2.468-.628-1.047-1.531-1.898-2.614-2.468 1.01-.863 1.674-2.13 1.674-3.554 0-2.585-2.115-4.7-4.7-4.7v-9.694c0-1.322.382-1.799.852-2.115s1.16-.411 1.674-.411h5.934c.07-.004.14-.011.206-.029l6.756-1.41c.217-.04.415-.154.558-.323l4.23-5.464c.114-.15.294-.239.499-.264zM6.58 31.96c1.568 0 2.82 1.252 2.82 2.82S8.148 37.6 6.58 37.6s-2.82-1.252-2.82-2.82c0-1.27.822-2.346 1.968-2.703.055-.018.121-.015.176-.029a1.07 1.07 0 0 0 .117-.029c.184-.037.364-.059.558-.059zm22.56 0c1.568 0 2.82 1.252 2.82 2.82s-1.252 2.82-2.82 2.82-2.82-1.252-2.82-2.82 1.252-2.82 2.82-2.82zm11.28 0c1.568 0 2.82 1.252 2.82 2.82s-1.252 2.82-2.82 2.82-2.82-1.252-2.82-2.82 1.252-2.82 2.82-2.82zm-22.795.029h.029c.125.026.257.026.382 0h.029c1.465.11 2.614 1.296 2.614 2.791 0 1.568-1.252 2.82-2.82 2.82s-2.82-1.252-2.82-2.82c0-1.487 1.135-2.669 2.585-2.791zM6.58 39.48a4.71 4.71 0 0 1 4.7 4.7v.94h-9.4v-.94a4.71 4.71 0 0 1 4.7-4.7zm11.28 0a4.71 4.71 0 0 1 4.7 4.7v.94h-9.4v-.94a4.71 4.71 0 0 1 4.7-4.7zm11.28 0a4.71 4.71 0 0 1 4.7 4.7v.94h-9.4v-.94a4.71 4.71 0 0 1 4.7-4.7zm11.28 0a4.71 4.71 0 0 1 4.7 4.7v.94h-9.4v-.94a4.71 4.71 0 0 1 4.7-4.7z" fill="#20a6d2"/></svg>