<svg xmlns="http://www.w3.org/2000/svg" width="50" height="47" xmlns:v="https://vecta.io/nano"><path d="M9.4 0C7.671 0 6.267 1.404 6.267 3.133V37.6c0 1.729 1.404 3.133 3.133 3.133h34.467c1.729 0 3.133-1.404 3.133-3.133V11.251l-1.567 1.567V37.6a1.57 1.57 0 0 1-1.567 1.567H9.4A1.57 1.57 0 0 1 7.833 37.6V3.133A1.57 1.57 0 0 1 9.4 1.567h34.467a1.57 1.57 0 0 1 1.542 1.31l1.209-1.212C46.088.679 45.06 0 43.867 0H9.4zm37.943 4.259L25.018 26.587l-7.344-7.341-1.665 1.662 9.008 9.005 23.99-23.99-1.665-1.665zM12.533 5.483c-.431 0-.783.352-.783.783s.352.783.783.783.783-.352.783-.783-.352-.783-.783-.783zm3.133 0c-.431 0-.783.352-.783.783s.352.783.783.783.783-.352.783-.783-.352-.783-.783-.783zm3.133 0c-.431 0-.783.352-.783.783s.352.783.783.783.783-.352.783-.783-.352-.783-.783-.783zm3.133 0c-.431 0-.783.352-.783.783s.352.783.783.783.783-.352.783-.783-.352-.783-.783-.783zm3.133 0c-.431 0-.783.352-.783.783s.352.783.783.783.783-.352.783-.783-.352-.783-.783-.783zm3.133 0c-.431 0-.783.352-.783.783s.352.783.783.783.783-.352.783-.783-.352-.783-.783-.783zm3.133 0c-.431 0-.783.352-.783.783s.352.783.783.783.783-.352.783-.783-.352-.783-.783-.783zm3.133 0c-.431 0-.783.352-.783.783s.352.783.783.783.783-.352.783-.783-.352-.783-.783-.783zm3.133 0c-.431 0-.783.352-.783.783s.352.783.783.783.783-.352.783-.783-.352-.783-.783-.783zm3.133 0c-.431 0-.783.352-.783.783s.352.783.783.783.783-.352.783-.783-.352-.783-.783-.783zm-37.6.783C1.411 6.267 0 7.677 0 9.4v34.467C0 45.589 1.411 47 3.133 47H37.6c1.723 0 3.133-1.411 3.133-3.133V42.3h-1.567v1.567c0 .875-.692 1.567-1.567 1.567H3.133c-.875 0-1.567-.692-1.567-1.567V9.4c0-.875.692-1.567 1.567-1.567H4.7V6.267H3.133zm9.4 2.35c-.431 0-.783.352-.783.783s.352.783.783.783.783-.352.783-.783-.352-.783-.783-.783zm0 3.133c-.431 0-.783.352-.783.783s.352.783.783.783.783-.352.783-.783-.352-.783-.783-.783zm0 3.133c-.431 0-.783.352-.783.783s.352.783.783.783.783-.352.783-.783-.352-.783-.783-.783zm0 3.133c-.431 0-.783.352-.783.783s.352.783.783.783.783-.352.783-.783-.352-.783-.783-.783zm28.2 0c-.431 0-.783.352-.783.783s.352.783.783.783.783-.352.783-.783-.352-.783-.783-.783zm-28.2 3.133c-.431 0-.783.352-.783.783s.352.783.783.783.783-.352.783-.783-.352-.783-.783-.783zm28.2 0c-.431 0-.783.352-.783.783s.352.783.783.783.783-.352.783-.783-.352-.783-.783-.783zm-28.2 3.133c-.431 0-.783.352-.783.783s.352.783.783.783.783-.352.783-.783-.352-.783-.783-.783zm28.2 0c-.431 0-.783.352-.783.783s.352.783.783.783.783-.352.783-.783-.352-.783-.783-.783zm-28.2 3.133c-.431 0-.783.352-.783.783s.352.783.783.783.783-.352.783-.783-.352-.783-.783-.783zm28.2 0c-.431 0-.783.352-.783.783s.352.783.783.783.783-.352.783-.783-.352-.783-.783-.783zm-28.2 3.133c-.431 0-.783.352-.783.783s.352.783.783.783.783-.352.783-.783-.352-.783-.783-.783zm28.2 0c-.431 0-.783.352-.783.783s.352.783.783.783.783-.352.783-.783-.352-.783-.783-.783zm-28.2 3.133c-.431 0-.783.352-.783.783s.352.783.783.783.783-.352.783-.783-.352-.783-.783-.783zm3.133 0c-.431 0-.783.352-.783.783s.352.783.783.783.783-.352.783-.783-.352-.783-.783-.783zm3.133 0c-.431 0-.783.352-.783.783s.352.783.783.783.783-.352.783-.783-.352-.783-.783-.783zm3.133 0c-.431 0-.783.352-.783.783s.352.783.783.783.783-.352.783-.783-.352-.783-.783-.783zm3.133 0c-.431 0-.783.352-.783.783s.352.783.783.783.783-.352.783-.783-.352-.783-.783-.783zm3.133 0c-.431 0-.783.352-.783.783s.352.783.783.783.783-.352.783-.783-.352-.783-.783-.783zm3.133 0c-.431 0-.783.352-.783.783s.352.783.783.783.783-.352.783-.783-.352-.783-.783-.783zm3.133 0c-.431 0-.783.352-.783.783s.352.783.783.783.783-.352.783-.783-.352-.783-.783-.783zm3.133 0c-.431 0-.783.352-.783.783s.352.783.783.783.783-.352.783-.783-.352-.783-.783-.783zm3.133 0c-.431 0-.783.352-.783.783s.352.783.783.783.783-.352.783-.783-.352-.783-.783-.783z" fill="#20a6d2"/></svg>