<svg xmlns="http://www.w3.org/2000/svg" width="15" height="12" xmlns:v="https://vecta.io/nano"><path d="M.316 0C.232 0 .152.033.093.093S0 .232 0 .316v5.452c.093-.053.201-.084.316-.084h.316V.632h13.263v10.737H8.842v.316c0 .115-.031.223-.084.316h5.452c.084 0 .164-.033.223-.092s.093-.139.093-.223V.316c0-.084-.033-.164-.093-.223S14.294 0 14.211 0H.316zm10.421 1.579c-.113-.001-.22.058-.277.157a.32.32 0 0 0 0 .318c.058.099.164.158.277.157h1.132l-3.25 3.25c-.083.079-.116.197-.086.307s.115.197.226.226.228-.004.307-.086l3.25-3.25v1.132c-.001.113.058.22.157.278a.32.32 0 0 0 .318 0c.099-.058.158-.164.157-.278V1.579h-2.211zM.316 6.316c-.174 0-.316.142-.316.316v5.053c0 .174.142.316.316.316h7.579c.174 0 .316-.142.316-.316V6.632c0-.174-.142-.316-.316-.316H.316zm.316.632h6.947v4.421H.632V6.947z" fill="#757575"/></svg>