<svg xmlns="http://www.w3.org/2000/svg" width="13" height="10" xmlns:v="https://vecta.io/nano"><path d="M3.323.001c-.268.03-.469.262-.463.534v8.932c-.003.19.095.365.258.461a.51.51 0 0 0 .524 0c.163-.095.261-.271.258-.461V.534a.53.53 0 0 0-.152-.38c-.1-.101-.235-.156-.376-.154C3.356 0 3.339 0 3.323.001zm6.24 0c-.268.03-.469.262-.463.534v8.932c-.003.19.095.365.258.461a.51.51 0 0 0 .524 0c.163-.095.261-.271.258-.461V.534a.53.53 0 0 0-.152-.38c-.1-.101-.235-.156-.376-.154C9.595 0 9.579 0 9.563.001zm-7.8 2.364c-.268.03-.469.262-.463.534v4.204c-.003.19.095.365.258.461a.51.51 0 0 0 .524 0c.163-.095.261-.271.258-.461V2.899a.53.53 0 0 0-.152-.38c-.1-.101-.235-.156-.376-.154-.016-.001-.032-.001-.049 0zm9.36 0c-.268.03-.469.262-.463.534v4.204c-.003.19.095.365.258.461a.51.51 0 0 0 .524 0c.162-.095.261-.271.258-.461V2.899a.53.53 0 0 0-.152-.38c-.099-.101-.235-.156-.376-.154-.016-.001-.032-.001-.049 0zm-6.24.263c-.268.03-.469.262-.463.534V6.84c-.003.19.095.365.258.461a.51.51 0 0 0 .524 0c.162-.095.261-.271.258-.461V3.162a.53.53 0 0 0-.152-.38c-.1-.101-.235-.156-.376-.154-.016-.001-.032-.001-.049 0zm3.12 0c-.268.03-.469.262-.463.534V6.84c-.003.19.095.365.258.461a.51.51 0 0 0 .524 0c.162-.095.261-.271.258-.461V3.162a.53.53 0 0 0-.152-.38c-.1-.101-.235-.156-.376-.154-.016-.001-.033-.001-.049 0zM.236 3.942a.3.3 0 0 0-.032.008c-.121.028-.206.138-.203.263v1.576c-.001.094.048.183.129.231a.26.26 0 0 0 .262 0c.081-.048.13-.136.129-.231V4.212c.003-.076-.027-.149-.081-.2S.31 3.934.236 3.942zm6.207 0c-.268.03-.469.262-.463.534v1.051c-.003.19.095.365.258.461a.51.51 0 0 0 .524 0c.162-.095.261-.271.258-.461V4.475a.53.53 0 0 0-.152-.38c-.1-.101-.235-.156-.376-.154-.016-.001-.032-.001-.049 0zm6.272 0c-.011.002-.022.005-.033.008-.121.028-.206.138-.203.263v1.576c-.001.094.048.183.129.231a.26.26 0 0 0 .262 0c.081-.048.13-.136.129-.231V4.212c.003-.076-.027-.149-.081-.2s-.129-.078-.203-.071z" fill="#fff"/></svg>