<svg xmlns="http://www.w3.org/2000/svg" width="50" height="50" xmlns:v="https://vecta.io/nano"><path d="M25 50c13.807 0 25-11.193 25-25S38.807 0 25 0 0 11.193 0 25s11.193 25 25 25z" fill="#f1f1f1" fill-rule="evenodd"/><path d="M38.555 24.756q.313.059.571.225.259.166.444.4.186.234.288.527.102.293.102.605 0 .371-.137.688-.137.317-.376.557-.239.239-.561.376-.322.137-.684.137h-2.451v.693q0 .439-.166.82-.166.381-.454.669-.288.288-.669.454-.381.166-.82.166-.469 0-.894-.205-.425-.205-.727-.566-.234.596-.64.967-.405.371-.991.625L21.26 35.82q-.215.088-.474.127-.259.039-.483.039-.566 0-1.074-.215-.508-.215-.894-.591-.386-.376-.61-.874-.225-.498-.225-1.074 0-.273.049-.537.049-.264.156-.518l3.887-9.082q.146-.342.327-.62.181-.278.464-.532-.43 0-.806-.171-.376-.171-.659-.454-.283-.283-.444-.664-.161-.381-.161-.811 0-.439.166-.82.166-.381.449-.669.283-.288.664-.454.381-.166.82-.166h.703v-.352q0-.459.166-.874.166-.415.449-.742.283-.327.674-.542.391-.215.85-.273.059-.303.215-.566.156-.264.386-.454.229-.19.518-.298.288-.107.601-.107.361 0 .684.137.322.137.561.376.239.239.376.562.137.322.137.684v1.055h.703q.439 0 .82.166.381.166.664.449.283.283.449.664.166.381.166.82 0 .547-.254 1.021-.254.474-.723.757.156.283.234.586.664-.176 1.338-.215.674-.039 1.357-.039.303-.332.708-.518.405-.186.855-.186.439 0 .82.166.381.166.659.454.278.288.444.669.166.381.176.82.01.176.01.347 0 .171 0 .347.322.127.562.351.239.225.415.508.176.283.278.605.102.322.142.645zm-19.648 8.476q0 .283.117.532.117.249.308.43.19.181.444.283.254.103.537.103.107 0 .225-.015.117-.015.215-.054l9.131-3.916q.439-.186.698-.513.259-.327.259-.825 0-.283-.112-.537-.112-.254-.308-.449l-5.195-5.195q-.215-.215-.444-.317-.229-.102-.542-.102-.498 0-.82.254-.322.254-.518.703l-3.906 9.111q-.049.117-.068.244-.02.127-.02.264zm19.053-6.348q.098 0 .2-.01.103-.01.19-.049.088-.039.147-.112.059-.073.059-.2 0-.225-.156-.293-.156-.068-.351-.068-.107 0-.21.01-.102.01-.181.01-.342 0-.435-.137-.093-.137-.093-.361 0-.127.01-.264.01-.137.01-.303 0-.215-.083-.405-.083-.19-.225-.337-.142-.146-.332-.23-.19-.083-.405-.083-.215 0-.405.083-.19.083-.337.23-.147.146-.23.337-.083.191-.083.405 0 .117.01.23.01.112.01.23 0 .098-.01.2-.01.102-.049.19-.039.088-.112.146-.073.059-.2.059-.127 0-.2-.059-.073-.059-.112-.146-.039-.088-.049-.19-.01-.103-.01-.2 0-.117.01-.23.01-.112.01-.23 0-.215-.083-.405-.083-.19-.229-.337-.146-.146-.337-.23-.19-.083-.405-.083-.215 0-.405.083-.19.083-.337.23-.147.146-.23.337-.083.191-.083.405v.703q0 .234-.171.298-.171.064-.376.064-.088 0-.171-.005-.083-.005-.151-.005-.098 0-.19.01-.093.01-.166.044-.073.034-.122.107-.049.073-.049.191 0 .234.186.303.185.068.41.068.137 0 .254-.01.117-.01.195-.01.215 0 .405-.083.191-.083.337-.229.146-.146.229-.337.083-.19.083-.405 0-.117-.01-.229-.01-.112-.01-.23 0-.098.01-.2.01-.103.049-.191.039-.088.112-.146.073-.059.2-.059.127 0 .2.059.073.058.112.146.039.088.049.191.01.102.01.2 0 .117-.01.23-.01.112-.01.229 0 .215.083.405.083.191.23.337.147.146.337.229.19.083.405.083.215 0 .405-.083.191-.083.337-.229.146-.146.229-.337.083-.19.083-.405 0-.117-.01-.229-.01-.112-.01-.23 0-.098.01-.2.01-.103.049-.191.039-.088.112-.146.073-.059.2-.059.225 0 .293.181.068.181.068.405 0 .137-.01.259-.01.122-.01.21 0 .352.132.567.132.215.342.327.21.112.483.146.273.034.557.034zm-13.438-9.502q0 .225.083.415.083.19.225.332.142.142.332.225.191.083.415.083.107 0 .225-.01.117-.01.225-.01.098 0 .2.01.102.01.19.049.088.039.146.112.059.073.059.2 0 .127-.059.2-.059.073-.146.112-.088.039-.19.049-.103.01-.2.01-.107 0-.225-.01-.117-.01-.225-.01-.225 0-.415.083-.19.083-.332.225-.142.142-.225.337-.083.195-.083.41 0 .215.083.405.083.19.229.337.146.146.337.23.19.083.405.083h.693q.234 0 .298.171.064.171.064.376 0 .088-.005.171-.005.083-.005.151 0 .098.01.191.01.093.044.166.034.073.107.122.073.049.191.049.234 0 .303-.186.068-.186.068-.41 0-.137-.01-.254-.01-.117-.01-.195 0-.215-.083-.41-.083-.195-.225-.337-.142-.142-.337-.225-.195-.083-.41-.083-.107 0-.225.01-.117.01-.225.01-.098 0-.205-.01-.107-.01-.195-.049-.088-.039-.142-.112-.054-.073-.054-.2 0-.127.054-.2.054-.073.142-.112.088-.039.195-.049.107-.01.205-.01.107 0 .225.01.117.01.225.01.215 0 .41-.083.195-.083.337-.225.142-.142.225-.332.083-.19.083-.415 0-.215-.083-.405-.083-.19-.23-.337-.146-.146-.337-.23-.19-.083-.405-.083-.107 0-.225.01-.117.01-.225.01-.098 0-.205-.01-.107-.01-.195-.049-.088-.039-.142-.112-.054-.073-.054-.2 0-.234.195-.303.195-.068.42-.068.127 0 .239.01.112.01.19.01.352 0 .566-.127.215-.127.327-.337.112-.21.146-.483.034-.273.034-.557 0-.098-.01-.2-.01-.103-.049-.19-.039-.088-.112-.146-.073-.059-.2-.059-.225 0-.293.156-.068.156-.068.352 0 .107.01.215.01.107.01.186 0 .195-.064.347-.063.151-.298.151h-.693q-.215 0-.405.083-.19.083-.337.22-.146.137-.229.332-.083.195-.083.41zm8.066 4.57q-.732 0-1.426.2-.693.2-1.299.566-.606.366-1.104.894-.498.527-.84 1.172l.527.518q.273-.605.708-1.094.434-.488.976-.835.542-.347 1.167-.537.625-.19 1.289-.19.146 0 .249-.103.103-.102.103-.249 0-.137-.107-.239-.107-.103-.244-.103zm-10.879-2.109q0 .293.205.498.205.205.498.205.293 0 .498-.205.205-.205.205-.498 0-.293-.205-.498-.205-.205-.498-.205-.293 0-.498.205-.205.205-.205.498zm7.725-2.109q-.293 0-.498.205-.205.205-.205.498 0 .293.205.498.205.205.498.205.293 0 .498-.205.205-.205.205-.498 0-.293-.205-.498-.205-.205-.498-.205zm-4.912 9.131q-.293 0-.498-.205-.205-.205-.205-.498 0-.293.205-.498.205-.205.498-.205.283 0 .493.21.21.21.21.493 0 .283-.21.493-.21.21-.493.21zm4.209-6.318q-.293 0-.498.205-.205.205-.205.498 0 .283.21.493.21.21.493.21.283 0 .493-.21.21-.21.21-.493 0-.293-.205-.498-.205-.205-.498-.205zm4.912 9.121q.293 0 .498-.205.205-.205.205-.498 0-.283-.21-.488-.21-.205-.493-.205-.283 0-.493.205-.21.205-.21.488 0 .293.205.498.205.205.498.205zm1.406-8.418q-.293 0-.498.205-.205.205-.205.498 0 .283.21.488.21.205.493.205.283 0 .493-.205.21-.205.21-.488 0-.293-.205-.498-.205-.205-.498-.205zm-8.428 8.418q-.283 0-.493-.21-.21-.21-.21-.493 0-.283.21-.488.21-.205.493-.205.283 0 .493.205.21.205.21.488 0 .293-.205.498-.205.205-.498.205z"/></svg>