<?xml version="1.0" encoding="utf-8"?>
<svg width="24px" height="24px" viewBox="0 0 24 24" version="1.1" xmlns:xlink="http://www.w3.org/1999/xlink" xmlns="http://www.w3.org/2000/svg">
  <g id="icons8-plus">
    <path d="M12 0C5.37876 0 0 5.37876 0 12C0 18.6212 5.37876 24 12 24C18.6212 24 24 18.6212 24 12C24 5.37876 18.6212 0 12 0ZM12 1.04348C18.0573 1.04348 22.9565 5.9427 22.9565 12C22.9565 18.0573 18.0573 22.9565 12 22.9565C5.9427 22.9565 1.04348 18.0573 1.04348 12C1.04348 5.9427 5.9427 1.04348 12 1.04348ZM11.4783 5.73913L11.4783 11.4783L5.73913 11.4783L5.73913 12.5217L11.4783 12.5217L11.4783 18.2609L12.5217 18.2609L12.5217 12.5217L18.2609 12.5217L18.2609 11.4783L12.5217 11.4783L12.5217 5.73913L11.4783 5.73913Z" id="Shape" fill="#757575" stroke="none" />
  </g>
</svg>