<?xml version="1.0" encoding="utf-8"?>
<svg width="10px" height="10px" viewBox="0 0 10 10" version="1.1" xmlns:xlink="http://www.w3.org/1999/xlink" xmlns="http://www.w3.org/2000/svg">
  <g id="icons8-stack">
    <path d="M1.5375 0C1.35625 0 1.21641 0.122656 1.175 0.29375L1.16875 0.29375L1.1625 0.31875L0.04375 3.825C0.040625 3.83203 0.034375 3.83672 0.03125 3.84375L0.03125 3.85625C0.021875 3.87422 0.015625 3.89297 0.0125 3.9125C0.0117188 3.91484 0.00703126 3.91641 0.00625 3.91875C0.00546876 3.92891 0.00546876 3.93984 0.00625 3.95C0.00390626 3.96641 0 3.98281 0 4L0 5.6C0 5.67188 0.021875 5.74141 0.05625 5.8C0.021875 5.85859 0 5.92812 0 6L0 7.6C0 7.67188 0.021875 7.74141 0.05625 7.8C0.021875 7.85859 0 7.92813 0 8L0 9.6C0 9.81875 0.18125 10 0.4 10L9.6 10C9.81875 10 10 9.81875 10 9.6L10 8C10 7.92813 9.97812 7.85859 9.94375 7.8C9.97812 7.74141 10 7.67188 10 7.6L10 6C10 5.92812 9.97812 5.85859 9.94375 5.8C9.97812 5.74141 10 5.67188 10 5.6L10 4C10 3.94453 9.98359 3.89219 9.9625 3.84375C9.9625 3.84141 9.9625 3.83984 9.9625 3.8375L8.8375 0.31875L8.83125 0.29375L8.825 0.29375C8.78359 0.122656 8.64375 0 8.4625 0L1.5375 0ZM1.55625 0.4L8.45 0.4C8.45 0.403906 8.45 0.408594 8.45 0.4125L9.46875 3.6L0.525 3.6L1.55 0.4125C1.55234 0.408594 1.55469 0.403906 1.55625 0.4ZM0.4 4L9.6 4L9.6 5.6L0.4 5.6L0.4 4.0125C0.4 4.00859 0.4 4.00391 0.4 4ZM8.6 4.4C8.37891 4.4 8.2 4.57891 8.2 4.8C8.2 5.02109 8.37891 5.2 8.6 5.2C8.82109 5.2 9 5.02109 9 4.8C9 4.57891 8.82109 4.4 8.6 4.4ZM0.4 6L9.6 6L9.6 7.6L0.4 7.6L0.4 6ZM8.6 6.4C8.37891 6.4 8.2 6.57891 8.2 6.8C8.2 7.02109 8.37891 7.2 8.6 7.2C8.82109 7.2 9 7.02109 9 6.8C9 6.57891 8.82109 6.4 8.6 6.4ZM0.4 8L9.6 8L9.6 9.6L0.4 9.6L0.4 8ZM8.6 8.4C8.37891 8.4 8.2 8.57891 8.2 8.8C8.2 9.02109 8.37891 9.2 8.6 9.2C8.82109 9.2 9 9.02109 9 8.8C9 8.57891 8.82109 8.4 8.6 8.4Z" id="Shape" fill="#FFFFFF" stroke="none" />
  </g>
</svg>