<svg xmlns="http://www.w3.org/2000/svg" width="13" height="10" viewBox="0 0 13 10">
  <g id="icons8-audio_wave_copy_4" data-name="icons8-audio_wave copy 4" transform="translate(0 0)">
    <path id="Shape" d="M9.358,9.928A.524.524,0,0,1,9.1,9.467V.535A.524.524,0,0,1,9.563,0h.049a.515.515,0,0,1,.375.154.528.528,0,0,1,.153.38V9.467a.525.525,0,0,1-.258.461.511.511,0,0,1-.524,0Zm-6.241,0a.523.523,0,0,1-.257-.461V.535A.523.523,0,0,1,3.323,0h.049a.518.518,0,0,1,.375.154A.524.524,0,0,1,3.9.535V9.467a.523.523,0,0,1-.257.461.513.513,0,0,1-.525,0Zm7.8-2.364A.526.526,0,0,1,10.66,7.1V2.9a.524.524,0,0,1,.464-.534h.049a.519.519,0,0,1,.376.154.531.531,0,0,1,.152.38V7.1a.526.526,0,0,1-.258.461.511.511,0,0,1-.524,0Zm-9.36,0A.525.525,0,0,1,1.3,7.1V2.9a.523.523,0,0,1,.463-.534h.049a.519.519,0,0,1,.376.154.531.531,0,0,1,.152.38V7.1a.526.526,0,0,1-.258.461.511.511,0,0,1-.524,0ZM7.8,7.3A.523.523,0,0,1,7.54,6.84V3.162A.523.523,0,0,1,8,2.628h.049a.519.519,0,0,1,.376.154.527.527,0,0,1,.152.38V6.84a.523.523,0,0,1-.257.461.513.513,0,0,1-.525,0Zm-3.119,0A.524.524,0,0,1,4.42,6.84V3.162a.524.524,0,0,1,.464-.534h.049a.515.515,0,0,1,.375.154.528.528,0,0,1,.153.38V6.84A.524.524,0,0,1,5.2,7.3a.511.511,0,0,1-.524,0Zm1.56-1.314a.524.524,0,0,1-.258-.461V4.475a.524.524,0,0,1,.464-.533.219.219,0,0,1,.049,0,.515.515,0,0,1,.376.154.529.529,0,0,1,.152.379V5.526a.524.524,0,0,1-.258.461.511.511,0,0,1-.524,0Zm6.371.033a.265.265,0,0,1-.13-.231V4.213a.262.262,0,0,1,.2-.263.19.19,0,0,1,.032-.008A.26.26,0,0,1,13,4.213V5.789a.266.266,0,0,1-.129.231.262.262,0,0,1-.262,0Zm-12.48,0A.266.266,0,0,1,0,5.789V4.213A.262.262,0,0,1,.2,3.95a.171.171,0,0,1,.032-.008.259.259,0,0,1,.2.07.267.267,0,0,1,.081.2V5.789a.266.266,0,0,1-.129.231.264.264,0,0,1-.263,0Z" fill="#fff"/>
  </g>
</svg>
