<?xml version="1.0" encoding="utf-8"?>
<svg width="19px" height="14px" viewBox="0 0 19 14" version="1.1" xmlns:xlink="http://www.w3.org/1999/xlink" xmlns="http://www.w3.org/2000/svg">
  <g id="icons8-audio_wave-copy-7">
    <path d="M4.65238 0.00107749C4.27702 0.042743 3.99549 0.367447 4.00402 0.748185L4.00402 13.2536C3.99976 13.5194 4.13768 13.7651 4.36517 13.8987C4.59124 14.0338 4.87277 14.0338 5.09884 13.8987C5.32634 13.7651 5.46426 13.5194 5.45999 13.2536L5.45999 0.748185C5.46283 0.548477 5.38605 0.35739 5.24671 0.216589C5.10737 0.0757882 4.91827 -0.00179582 4.72063 0.00107749C4.69788 -0.000359163 4.67513 -0.000359163 4.65238 0.00107749ZM13.3882 0.00107749C13.0128 0.042743 12.7313 0.367447 12.7398 0.748185L12.7398 13.2536C12.7356 13.5194 12.8735 13.7651 13.101 13.8987C13.3271 14.0338 13.6086 14.0338 13.8346 13.8987C14.0621 13.7651 14.2001 13.5194 14.1958 13.2536L14.1958 0.748185C14.1986 0.548477 14.1219 0.35739 13.9825 0.216589C13.8432 0.0757882 13.6541 -0.00179582 13.4564 0.00107749C13.4337 -0.000359163 13.4109 -0.000359163 13.3882 0.00107749ZM2.46843 3.31134C2.09306 3.353 1.81154 3.67771 1.82007 4.05844L1.82007 9.94335C1.8158 10.2091 1.95372 10.4548 2.18122 10.5884C2.40729 10.7235 2.68882 10.7235 2.91489 10.5884C3.14239 10.4548 3.2803 10.2091 3.27604 9.94335L3.27604 4.05844C3.27888 3.85874 3.2021 3.66765 3.06276 3.52685C2.92342 3.38605 2.73432 3.30846 2.53668 3.31134C2.51393 3.3099 2.49118 3.3099 2.46843 3.31134ZM15.5721 3.31134C15.1968 3.353 14.9152 3.67771 14.9238 4.05844L14.9238 9.94335C14.9195 10.2091 15.0574 10.4548 15.2849 10.5884C15.511 10.7235 15.7925 10.7235 16.0186 10.5884C16.2461 10.4548 16.384 10.2091 16.3797 9.94335L16.3797 4.05844C16.3826 3.85874 16.3058 3.66765 16.1665 3.52685C16.0271 3.38605 15.838 3.30846 15.6404 3.31134C15.6176 3.3099 15.5949 3.3099 15.5721 3.31134ZM6.83633 3.67914C6.46097 3.72081 6.17944 4.04551 6.18797 4.42625L6.18797 9.57554C6.18371 9.84134 6.32163 10.087 6.54912 10.2206C6.77519 10.3557 7.05672 10.3557 7.28279 10.2206C7.51029 10.087 7.64821 9.84134 7.64394 9.57554L7.64394 4.42625C7.64679 4.22654 7.57001 4.03546 7.43067 3.89466C7.29132 3.75385 7.10222 3.67627 6.90458 3.67914C6.88183 3.67771 6.85908 3.67771 6.83633 3.67914ZM11.2042 3.67914C10.8289 3.72081 10.5473 4.04551 10.5559 4.42625L10.5559 9.57554C10.5516 9.84134 10.6895 10.087 10.917 10.2206C11.1431 10.3557 11.4246 10.3557 11.6507 10.2206C11.8782 10.087 12.0161 9.84134 12.0118 9.57554L12.0118 4.42625C12.0147 4.22654 11.9379 4.03546 11.7986 3.89466C11.6592 3.75385 11.4701 3.67627 11.2725 3.67914C11.2497 3.67771 11.227 3.67771 11.2042 3.67914ZM0.329978 5.51818C0.314338 5.52105 0.298698 5.52536 0.284479 5.52967C0.11528 5.56846 -0.00415485 5.7222 0.000110698 5.89748L0.000110698 8.10432C-0.00131115 8.2365 0.0669374 8.36006 0.180685 8.42759C0.294432 8.49368 0.433773 8.49368 0.54752 8.42759C0.661268 8.36006 0.729516 8.2365 0.728095 8.10432L0.728095 5.89748C0.73236 5.79116 0.689705 5.68915 0.614347 5.61731C0.537568 5.54404 0.433773 5.50812 0.329978 5.51818ZM9.02029 5.51818C8.64492 5.55984 8.36339 5.88455 8.37193 6.26528L8.37193 7.73651C8.36766 8.00231 8.50558 8.24799 8.73307 8.38161C8.95915 8.51666 9.24067 8.51666 9.46675 8.38161C9.69424 8.24799 9.83216 8.00231 9.82789 7.73651L9.82789 6.26528C9.83074 6.06558 9.75396 5.87449 9.61462 5.73369C9.47528 5.59289 9.28617 5.5153 9.08853 5.51818C9.06578 5.51674 9.04304 5.51674 9.02029 5.51818ZM17.8016 5.51818C17.786 5.52105 17.7703 5.52536 17.7561 5.52967C17.5869 5.56846 17.4675 5.7222 17.4717 5.89748L17.4717 8.10432C17.4703 8.2365 17.5385 8.36006 17.6523 8.42759C17.766 8.49368 17.9054 8.49368 18.0191 8.42759C18.1329 8.36006 18.2011 8.2365 18.1997 8.10432L18.1997 5.89748C18.204 5.79116 18.1613 5.68915 18.086 5.61731C18.0092 5.54404 17.9054 5.50812 17.8016 5.51818Z" id="Shape" fill="#20A6D2" stroke="none" />
  </g>
</svg>