<?xml version="1.0" encoding="utf-8"?>
<svg width="16px" height="17px" viewBox="0 0 16 17" version="1.1" xmlns:xlink="http://www.w3.org/1999/xlink" xmlns="http://www.w3.org/2000/svg">
  <g id="icons8-checked-copy">
    <path d="M8 16.097C3.58876 16.097 0 12.4865 0 8.04848C0 3.61051 3.58876 0 8 0C12.4112 0 16 3.61051 16 8.04848C16 12.4865 12.4112 16.097 8 16.097Z" id="Path" fill="#31960C" fill-rule="evenodd" stroke="none" />
    <path d="M8 0.423604C12.1789 0.423604 15.5789 3.84421 15.5789 8.04848C15.5789 12.2528 12.1789 15.6734 8 15.6734C3.82105 15.6734 0.421053 12.2528 0.421053 8.04848C0.421053 3.84421 3.82105 0.423604 8 0.423604M8 0C3.58189 0 0 3.6036 0 8.04848C0 12.4934 3.58189 16.097 8 16.097C12.4181 16.097 16 12.4934 16 8.04848C16 3.6036 12.4181 0 8 0L8 0Z" id="Shape" fill="#20A6D2" stroke="none" />
    <path d="M2.76993 6.62816L0 3.82572L0.850989 2.96515L2.76993 4.90661L7.6196 0L8.47059 0.860574L2.76993 6.62816Z" transform="translate(3.7646484 4.7344055)" id="Path" fill="#FFFFFF" fill-rule="evenodd" stroke="none" />
  </g>
</svg>