<?xml version="1.0" encoding="utf-8"?>
<svg width="11px" height="12px" viewBox="0 0 11 12" version="1.1" xmlns:xlink="http://www.w3.org/1999/xlink" xmlns="http://www.w3.org/2000/svg">
  <g id="icons8-time">
    <path d="M4.45238 0L4.45238 0.782609L4.97619 0.782609L4.97619 1.06895C2.18699 1.33237 0 3.67534 0 6.52174C0 9.54421 2.46554 12 5.5 12C8.53446 12 11 9.54421 11 6.52174C11 3.67534 8.81301 1.33237 6.02381 1.06895L6.02381 0.782609L6.54762 0.782609L6.54762 0L4.45238 0ZM9.49047 0.820822L8.96512 1.34409L10.1739 2.54806L10.6992 2.0248L9.49047 0.820822ZM5.5 1.56522C8.25138 1.56522 10.4762 3.78124 10.4762 6.52174C10.4762 9.26224 8.25138 11.4783 5.5 11.4783C2.74862 11.4783 0.52381 9.26224 0.52381 6.52174C0.52381 3.78124 2.74862 1.56522 5.5 1.56522ZM2.87839 3.64963C2.77182 3.64965 2.67589 3.714 2.63578 3.81235C2.59568 3.9107 2.6194 4.02345 2.69578 4.09749L4.99461 6.38723C4.98261 6.43108 4.97642 6.47629 4.97619 6.52174C4.97619 6.80989 5.21071 7.04348 5.5 7.04348C5.54577 7.04346 5.59135 7.03746 5.63556 7.02565L6.10054 7.48879C6.16623 7.55694 6.26378 7.58439 6.35556 7.56056C6.44734 7.53673 6.51902 7.46534 6.54294 7.37392C6.56687 7.2825 6.53931 7.18534 6.47089 7.1199L6.00539 6.65625C6.01739 6.6124 6.02358 6.56718 6.02381 6.52174C6.02381 6.23359 5.78929 6 5.5 6C5.45423 6.00002 5.40865 6.00601 5.36444 6.01783L3.06613 3.7286C3.01682 3.67811 2.94911 3.64963 2.87839 3.64963Z" id="Shape" fill="#757575" stroke="none" />
  </g>
</svg>