<?xml version="1.0" encoding="utf-8"?>
<svg width="19px" height="19px" viewBox="0 0 19 19" version="1.1" xmlns:xlink="http://www.w3.org/1999/xlink" xmlns="http://www.w3.org/2000/svg">
  <path d="M9.4 0.5C4.15473 0.5 -0.1 4.75473 -0.1 10C-0.1 15.2453 4.15473 19.5 9.4 19.5C14.6453 19.5 18.9 15.2453 18.9 10C18.9 4.75473 14.6453 0.5 9.4 0.5ZM14.8064 6.85733L9.51073 14.1379C9.35418 14.3541 9.10431 14.5 8.85744 14.5C8.61057 14.5 8.33961 14.3737 8.165 14.2137L5.05806 11.3144C4.84731 11.1179 4.84731 10.7951 5.05806 10.5987L5.82576 9.88297C6.0365 9.6865 6.38272 9.6865 6.59045 9.88297L8.61358 11.7663L13.0091 5.72062C13.1776 5.49047 13.5178 5.43153 13.7647 5.5859L14.6649 6.15566C14.9087 6.31003 14.975 6.62718 14.8064 6.85733Z" id="Shape" fill="#31960C" stroke="none" />
</svg>