<?xml version="1.0" encoding="utf-8"?>
<svg width="46px" height="44px" viewBox="0 0 46 44" version="1.1" xmlns:xlink="http://www.w3.org/1999/xlink" xmlns="http://www.w3.org/2000/svg">
  <g id="icons8-classroom">
    <path d="M9.45767 0C6.65277 0 4.36508 2.30599 4.36508 5.13333C4.36508 7.96068 6.65277 10.2667 9.45767 10.2667C12.2626 10.2667 14.5503 7.96068 14.5503 5.13333C14.5503 2.30599 12.2626 0 9.45767 0ZM15.2778 0.733333L16.0053 2.2L42.9233 2.2L42.9233 30.0667L43.6508 30.0667C44.0515 30.0667 44.3783 30.3961 44.3783 30.8L44.3783 31.5333L16.7328 31.5333L16.7328 33L45.8333 33L45.8333 30.8C45.8333 29.8432 45.2252 29.0297 44.3783 28.726L44.3783 0.733333L15.2778 0.733333ZM9.45767 1.46667C11.4754 1.46667 13.0952 3.09948 13.0952 5.13333C13.0952 7.16719 11.4754 8.8 9.45767 8.8C7.43996 8.8 5.82011 7.16719 5.82011 5.13333C5.82011 3.09948 7.43996 1.46667 9.45767 1.46667ZM4.36508 11.7333C1.96372 11.7333 0 13.7128 0 16.1333L0 28.2333C0 29.6427 1.14811 30.8 2.5463 30.8C2.94131 30.8 3.30223 30.6911 3.63757 30.525L3.63757 33L5.09259 33L5.09259 28.2333L3.63757 28.2333C3.63757 28.8492 3.15729 29.3333 2.5463 29.3333C1.9353 29.3333 1.45503 28.8492 1.45503 28.2333L1.45503 16.1333C1.45503 14.5063 2.75091 13.2 4.36508 13.2L6.86306 13.2L9.45767 17.557L12.0523 13.2L27.2817 13.2C27.8927 13.2 28.373 13.6841 28.373 14.3C28.373 14.9159 27.8927 15.4 27.2817 15.4L13.8228 15.4L13.8228 33L15.2778 33L15.2778 16.8667L27.2817 16.8667C28.6799 16.8667 29.828 15.7094 29.828 14.3C29.828 12.8906 28.6799 11.7333 27.2817 11.7333L11.2281 11.7333L9.45767 14.7096L7.6872 11.7333L4.36508 11.7333ZM4.36508 16.8667C3.96438 16.8667 3.63757 17.1961 3.63757 17.6C3.63757 18.0039 3.96438 18.3333 4.36508 18.3333C4.76578 18.3333 5.09259 18.0039 5.09259 17.6C5.09259 17.1961 4.76578 16.8667 4.36508 16.8667ZM4.36508 19.8C3.96438 19.8 3.63757 20.1294 3.63757 20.5333C3.63757 20.9372 3.96438 21.2667 4.36508 21.2667C4.76578 21.2667 5.09259 20.9372 5.09259 20.5333C5.09259 20.1294 4.76578 19.8 4.36508 19.8ZM4.36508 22.7333C3.96438 22.7333 3.63757 23.0628 3.63757 23.4667C3.63757 23.8706 3.96438 24.2 4.36508 24.2C4.76578 24.2 5.09259 23.8706 5.09259 23.4667C5.09259 23.0628 4.76578 22.7333 4.36508 22.7333ZM4.36508 25.6667C3.96438 25.6667 3.63757 25.9961 3.63757 26.4C3.63757 26.8039 3.96438 27.1333 4.36508 27.1333C4.76578 27.1333 5.09259 26.8039 5.09259 26.4C5.09259 25.9961 4.76578 25.6667 4.36508 25.6667ZM17.4603 28.6C17.0596 28.6 16.7328 28.9294 16.7328 29.3333C16.7328 29.7372 17.0596 30.0667 17.4603 30.0667C17.861 30.0667 18.1878 29.7372 18.1878 29.3333C18.1878 28.9294 17.861 28.6 17.4603 28.6ZM20.3704 28.6C19.9697 28.6 19.6429 28.9294 19.6429 29.3333C19.6429 29.7372 19.9697 30.0667 20.3704 30.0667C20.7711 30.0667 21.0979 29.7372 21.0979 29.3333C21.0979 28.9294 20.7711 28.6 20.3704 28.6ZM23.2804 28.6C22.8797 28.6 22.5529 28.9294 22.5529 29.3333C22.5529 29.7372 22.8797 30.0667 23.2804 30.0667C23.6811 30.0667 24.0079 29.7372 24.0079 29.3333C24.0079 28.9294 23.6811 28.6 23.2804 28.6ZM26.1905 28.6C25.7898 28.6 25.463 28.9294 25.463 29.3333C25.463 29.7372 25.7898 30.0667 26.1905 30.0667C26.5912 30.0667 26.918 29.7372 26.918 29.3333C26.918 28.9294 26.5912 28.6 26.1905 28.6ZM29.1005 28.6C28.6998 28.6 28.373 28.9294 28.373 29.3333C28.373 29.7372 28.6998 30.0667 29.1005 30.0667C29.5012 30.0667 29.828 29.7372 29.828 29.3333C29.828 28.9294 29.5012 28.6 29.1005 28.6ZM32.0106 28.6C31.6099 28.6 31.2831 28.9294 31.2831 29.3333C31.2831 29.7372 31.6099 30.0667 32.0106 30.0667C32.4113 30.0667 32.7381 29.7372 32.7381 29.3333C32.7381 28.9294 32.4113 28.6 32.0106 28.6ZM34.9206 28.6C34.5199 28.6 34.1931 28.9294 34.1931 29.3333C34.1931 29.7372 34.5199 30.0667 34.9206 30.0667C35.3213 30.0667 35.6481 29.7372 35.6481 29.3333C35.6481 28.9294 35.3213 28.6 34.9206 28.6ZM37.8307 28.6C37.43 28.6 37.1032 28.9294 37.1032 29.3333C37.1032 29.7372 37.43 30.0667 37.8307 30.0667C38.2314 30.0667 38.5582 29.7372 38.5582 29.3333C38.5582 28.9294 38.2314 28.6 37.8307 28.6ZM40.7407 28.6C40.34 28.6 40.0132 28.9294 40.0132 29.3333C40.0132 29.7372 40.34 30.0667 40.7407 30.0667C41.1414 30.0667 41.4683 29.7372 41.4683 29.3333C41.4683 28.9294 41.1414 28.6 40.7407 28.6ZM5.09259 35.2C2.69123 35.2 0.727513 37.1794 0.727513 39.6C0.727513 42.0206 2.69123 44 5.09259 44C6.6073 44 7.94581 43.2122 8.73016 42.0234C9.51451 43.2122 10.853 44 12.3677 44C13.8824 44 15.2209 43.2122 16.0053 42.0234C16.7896 43.2122 18.1282 44 19.6429 44C21.1576 44 22.4961 43.2122 23.2804 42.0234C24.0648 43.2122 25.4033 44 26.918 44C28.4327 44 29.7712 43.2122 30.5556 42.0234C31.3399 43.2122 32.6784 44 34.1931 44C35.7078 44 37.0463 43.2122 37.8307 42.0234C38.615 43.2122 39.9535 44 41.4683 44C43.8696 44 45.8333 42.0206 45.8333 39.6C45.8333 37.1794 43.8696 35.2 41.4683 35.2C39.9535 35.2 38.615 35.9878 37.8307 37.1766C37.0463 35.9878 35.7078 35.2 34.1931 35.2C32.6784 35.2 31.3399 35.9878 30.5556 37.1766C29.7712 35.9878 28.4327 35.2 26.918 35.2C25.4033 35.2 24.0648 35.9878 23.2804 37.1766C22.4961 35.9878 21.1576 35.2 19.6429 35.2C18.1282 35.2 16.7896 35.9878 16.0053 37.1766C15.2209 35.9878 13.8824 35.2 12.3677 35.2C10.853 35.2 9.51451 35.9878 8.73016 37.1766C7.94581 35.9878 6.6073 35.2 5.09259 35.2ZM5.09259 36.6667C6.7096 36.6667 8.00265 37.9701 8.00265 39.6C8.00265 41.2299 6.7096 42.5333 5.09259 42.5333C3.47558 42.5333 2.18254 41.2299 2.18254 39.6C2.18254 37.9701 3.47558 36.6667 5.09259 36.6667ZM12.3677 36.6667C13.9847 36.6667 15.2778 37.9701 15.2778 39.6C15.2778 41.2299 13.9847 42.5333 12.3677 42.5333C10.7507 42.5333 9.45767 41.2299 9.45767 39.6C9.45767 37.9701 10.7507 36.6667 12.3677 36.6667ZM19.6429 36.6667C21.2599 36.6667 22.5529 37.9701 22.5529 39.6C22.5529 41.2299 21.2599 42.5333 19.6429 42.5333C18.0258 42.5333 16.7328 41.2299 16.7328 39.6C16.7328 37.9701 18.0258 36.6667 19.6429 36.6667ZM26.918 36.6667C28.535 36.6667 29.828 37.9701 29.828 39.6C29.828 41.2299 28.535 42.5333 26.918 42.5333C25.301 42.5333 24.0079 41.2299 24.0079 39.6C24.0079 37.9701 25.301 36.6667 26.918 36.6667ZM34.1931 36.6667C35.8101 36.6667 37.1032 37.9701 37.1032 39.6C37.1032 41.2299 35.8101 42.5333 34.1931 42.5333C32.5761 42.5333 31.2831 41.2299 31.2831 39.6C31.2831 37.9701 32.5761 36.6667 34.1931 36.6667ZM41.4683 36.6667C43.0853 36.6667 44.3783 37.9701 44.3783 39.6C44.3783 41.2299 43.0853 42.5333 41.4683 42.5333C39.8512 42.5333 38.5582 41.2299 38.5582 39.6C38.5582 37.9701 39.8512 36.6667 41.4683 36.6667Z" id="Shape" fill="#FFFFFF" stroke="none" />
  </g>
</svg>