<?xml version="1.0" encoding="utf-8"?>
<svg width="14px" height="14px" viewBox="0 0 14 14" version="1.1" xmlns:xlink="http://www.w3.org/1999/xlink" xmlns="http://www.w3.org/2000/svg">
  <g id="icons8-ok">
    <path d="M7 0C3.13506 0 0 3.13506 0 7C0 10.8649 3.13506 14 7 14C10.8649 14 14 10.8649 14 7C14 3.13506 10.8649 0 7 0ZM10.6793 4.83384L6.9253 10.3698C6.81433 10.5341 6.6372 10.6451 6.4622 10.6451C6.2872 10.6451 6.09512 10.5491 5.97134 10.4274L3.7689 8.22287C3.61951 8.07348 3.61951 7.82805 3.7689 7.67866L4.31311 7.13445C4.4625 6.98506 4.70793 6.98506 4.85518 7.13445L6.28933 8.56646L9.40518 3.96951C9.5247 3.79451 9.76585 3.74969 9.94085 3.86707L10.579 4.3003C10.7518 4.41768 10.7988 4.65884 10.6793 4.83384Z" id="Shape" fill="#31960C" stroke="none" />
  </g>
</svg>