<?xml version="1.0" encoding="utf-8"?>
<svg width="11px" height="13px" viewBox="0 0 11 13" version="1.1" xmlns:xlink="http://www.w3.org/1999/xlink" xmlns="http://www.w3.org/2000/svg">
  <g id="icons8-image_file">
    <path d="M0 0L0 13L11 13L11 3.79093L6.84755 0L0 0ZM0.611111 0.565217L6.41667 0.565217L6.41667 4.23913L10.3889 4.23913L10.3889 12.4348L0.611111 12.4348L0.611111 0.565217ZM7.02778 0.95822L10.0022 3.67391L7.02778 3.67391L7.02778 0.95822ZM8.09722 5.4634C7.77854 5.4645 7.51953 5.69633 7.51953 5.98225C7.52072 6.26817 7.77854 6.5 8.09722 6.5C8.41591 6.5 8.67372 6.26817 8.67491 5.98225C8.67491 5.69633 8.41591 5.4645 8.09722 5.4634ZM4.3291 6.21739C4.22765 6.21408 4.13097 6.25603 4.07129 6.3322L1.79156 9.18147C1.72352 9.26758 1.71278 9.38128 1.76411 9.47622C1.81662 9.57227 1.92166 9.63188 2.03744 9.63188L6.54677 9.63188C6.55393 9.63188 6.56109 9.63188 6.56825 9.63188C6.56944 9.63188 6.56944 9.63188 6.57064 9.63188L8.56033 9.6087C8.6773 9.60759 8.78234 9.54356 8.83247 9.44531C8.8814 9.34706 8.86589 9.23225 8.79308 9.14835L6.80458 6.8919C6.74609 6.82456 6.65658 6.78592 6.56348 6.78702C6.4668 6.78923 6.37728 6.83229 6.32118 6.90404L5.66949 7.7331L4.56424 6.3333C4.50814 6.26376 4.4222 6.2207 4.3291 6.21739ZM4.31597 6.9769L5.4248 8.38222C5.426 8.38443 5.42719 8.38553 5.42839 8.38663L5.9655 9.06666L2.64377 9.06666L4.31597 6.9769ZM6.58138 7.53329L7.91938 9.05121L6.72222 9.06556L6.04905 8.21332L6.58138 7.53329Z" id="Shape" fill="#272D36" stroke="none" />
  </g>
</svg>