<?xml version="1.0" encoding="utf-8"?>
<svg width="16px" height="16px" viewBox="0 0 16 16" version="1.1" xmlns:xlink="http://www.w3.org/1999/xlink" xmlns="http://www.w3.org/2000/svg">
  <g id="icons8-cancel">
    <path d="M8 0C3.582 0 0 3.582 0 8C0 12.418 3.582 16 8 16C12.418 16 16 12.418 16 8C16 3.582 12.418 0 8 0ZM8.94267 8C8.94267 8 11.0353 10.0927 11.138 10.1953C11.3987 10.456 11.3987 10.878 11.138 11.138C10.8773 11.3987 10.4553 11.3987 10.1953 11.138C10.0927 11.036 8 8.94267 8 8.94267C8 8.94267 5.90733 11.0353 5.80467 11.138C5.544 11.3987 5.122 11.3987 4.862 11.138C4.60133 10.8773 4.60133 10.4553 4.862 10.1953C4.964 10.0927 7.05733 8 7.05733 8C7.05733 8 4.96467 5.90733 4.862 5.80467C4.60133 5.544 4.60133 5.122 4.862 4.862C5.12267 4.60133 5.54467 4.60133 5.80467 4.862C5.90733 4.964 8 7.05733 8 7.05733C8 7.05733 10.0927 4.96467 10.1953 4.862C10.456 4.60133 10.878 4.60133 11.138 4.862C11.3987 5.12267 11.3987 5.54467 11.138 5.80467C11.036 5.90733 8.94267 8 8.94267 8Z" id="Shape" fill="#757575" fill-opacity="0.5019608" stroke="none" />
  </g>
</svg>