<svg xmlns="http://www.w3.org/2000/svg" width="296" height="59" viewBox="0 0 296 59">
  <path id="Combined_Shape" data-name="Combined Shape" d="M35.26,59a3.794,3.794,0,0,1-3.706-3.667c0-.016,0-.031,0-.048a3.9,3.9,0,0,1,3.9-3.771h.1a3.618,3.618,0,0,1,3.6,3.49c0,.015,0,.031,0,.046s0,.033,0,.049A3.92,3.92,0,0,1,35.379,59H35.26ZM17.2,55.055a4.93,4.93,0,0,1-1.934-5.081,4.275,4.275,0,0,1,3.451-3.5,3.675,3.675,0,0,1,.71-.088,1.567,1.567,0,0,1,.292.025,1.273,1.273,0,0,0,.221.022c.383,0,.543-.234.7-.666.587-1.6,1.206-3.151,1.733-4.451.147-.361.151-.59-.23-.842a6.784,6.784,0,0,1-2.8-3.871c-.119-.4-.276-.528-.65-.528h-.046c-.246.006-.49.009-.725.009a18.008,18.008,0,0,1-6.244-.986.493.493,0,0,0-.168-.027,2.192,2.192,0,0,0-.806.256,4.508,4.508,0,0,1-1.89.43,3.792,3.792,0,0,1-3.565-2.4,5.173,5.173,0,0,1-.333-2.918,6.672,6.672,0,0,1,3.331-4.909,1.632,1.632,0,0,0,.6-.624,20.473,20.473,0,0,1,3.9-5.177.629.629,0,0,0,.169-.865,4.159,4.159,0,0,1-.106-3.076l.091-.286,0-.005c.037-.118.077-.244.123-.39l-.878-.141H12.15c-.831-.135-1.614-.263-2.41-.355l-.044,0a1.132,1.132,0,0,0-.654.328,6.165,6.165,0,0,1-2.8,1.643,3.2,3.2,0,0,1-.674.09,1.172,1.172,0,0,1-.976-.445,1.534,1.534,0,0,1-.051-1.725,6.082,6.082,0,0,1,3.989-3.461,2.906,2.906,0,0,1,.746-.11,1.171,1.171,0,0,1,.981.413,1.835,1.835,0,0,1,.1,1.609,1.479,1.479,0,0,0-.033.169c-.007.043-.015.094-.026.157l.743.1h.01c.891.123,1.811.251,2.714.357h.018c.136,0,.311-.182.363-.238a8.388,8.388,0,0,1,3.724-2.4.745.745,0,0,0,.572-.661,8.978,8.978,0,0,1,1.418-3.441.555.555,0,0,0,.059-.745A1.024,1.024,0,0,1,20.066,4.9a7.971,7.971,0,0,1,1.853-1.467A7.8,7.8,0,0,1,25.453,2.6a8.506,8.506,0,0,1,1.094.072l.117.014a1.651,1.651,0,0,1,.742.2A7.811,7.811,0,0,0,30.046,3.9a11.316,11.316,0,0,1,1.85.58c.252.112.5.247.747.376a5.4,5.4,0,0,0,1.531.629,2.694,2.694,0,0,0,.466.038,7.228,7.228,0,0,0,1.015-.1,7.757,7.757,0,0,1,.976-.1h.1a9.6,9.6,0,0,1,1.789.2.97.97,0,0,0,.178.019.475.475,0,0,0,.442-.3c.212-.366.433-.722.666-1.1.1-.158.2-.319.3-.482-.136-.079-.275-.153-.411-.224a4.686,4.686,0,0,1-.9-.566,1.442,1.442,0,0,1-.541-.965c.013-.216.514-.54.832-.588a7.19,7.19,0,0,1,1.068-.082,6.985,6.985,0,0,1,4.1,1.372c.238.167.5.62.436.837a1.1,1.1,0,0,1-.777.6A6.547,6.547,0,0,1,42.9,4.1h-.437c-.2,0-.357,0-.5.011a.74.74,0,0,0-.528.2c-.265.4-.5.829-.728,1.239-.084.149-.166.3-.247.442l.04.027,1.887,1.345a.26.26,0,0,1,.085.083c.557,1.185,1.617,1.364,2.643,1.537.2.033.41.068.611.111a22.755,22.755,0,0,1,2.355.622,22.653,22.653,0,0,0,3.31.8,6.734,6.734,0,0,1,5.354,4.4,2.474,2.474,0,0,1,.029,1.9,1.867,1.867,0,0,1-1.086,1,.541.541,0,0,0-.276.344,9.712,9.712,0,0,1-2.716,4.685c-.043.046-.059.081-.051.108s.03.039.07.05l.24.888c.224.83.456,1.686.676,2.532a1.171,1.171,0,0,1,.033.6c-.236.793.14,1.165.825,1.506.819.408,1.632.873,2.348,1.283.3.174.591.337.868.492.211-.161.406-.328.595-.49a5.047,5.047,0,0,1,1.214-.852,1.8,1.8,0,0,1,.717-.15,2.917,2.917,0,0,1,1.724.707,5.59,5.59,0,0,1,1.921,5.415A2.632,2.632,0,0,1,61.4,37.2a3.047,3.047,0,0,1-2.092-.958,5.552,5.552,0,0,1-1.652-3.6.945.945,0,0,0-.583-.862c-.971-.509-1.913-1.028-2.91-1.576-.369-.2-.738-.407-1.111-.61a5.492,5.492,0,0,1-2.429,2.365c-.085.041-.175.077-.27.117-.284.117-.578.237-.682.448a1.372,1.372,0,0,0-.026.766,3.335,3.335,0,0,1,.041.427,20.758,20.758,0,0,1-.847,6.829A2.474,2.474,0,0,0,48.8,42.07a6.226,6.226,0,0,1-.665,4.855,5.976,5.976,0,0,1-3.859,2.794,5.225,5.225,0,0,1-1.121.122,5.832,5.832,0,0,1-5.223-3.515,1.258,1.258,0,0,0-.515-.6,22.575,22.575,0,0,1-6.528-4.8.672.672,0,0,0-.475-.26.912.912,0,0,0-.42.136,7.812,7.812,0,0,1-3.691.978,7.284,7.284,0,0,1-1.488-.156c-.078-.017-.158-.027-.251-.039l-.143-.018-.4,1.038c-.563,1.455-1.146,2.957-1.692,4.441-.048.129.147.415.3.547a5.149,5.149,0,0,1,1.365,5.693,4.333,4.333,0,0,1-4.014,2.731A4.61,4.61,0,0,1,17.2,55.055ZM41.854,30.016c-1.162.454-2.34.922-3.479,1.374-1.308.52-2.66,1.057-4,1.576-.381.148-.491.315-.456.689a6.391,6.391,0,0,1-.518,3.2c-.245.553-.539,1.07-.85,1.618-.137.24-.278.489-.414.741A24.134,24.134,0,0,0,37.318,43.3a6.559,6.559,0,0,1,1.969-4.181,5.665,5.665,0,0,1,3.9-1.579A6.024,6.024,0,0,1,47.259,39.2a21.343,21.343,0,0,0,.564-6.609c-.033-.012-.061-.023-.086-.033a.457.457,0,0,0-.121-.038,8.271,8.271,0,0,1-5.1-2.495.419.419,0,0,0-.291-.081A1.107,1.107,0,0,0,41.854,30.016ZM10.569,24.755c.216.077.433.145.643.21a6.407,6.407,0,0,1,1.283.5,4.578,4.578,0,0,1,1.831,5.107,14.522,14.522,0,0,1-.728,2.012c-.127.3-.258.619-.38.937a18.017,18.017,0,0,0,4.639.553c.355,0,.723-.008,1.094-.024.017-.032.031-.058.043-.078a.215.215,0,0,0,.036-.079,7.835,7.835,0,0,1,2.793-5.376c.271-.227.19-.415.087-.653l-.011-.024-.279-.652c-.441-1.026-.9-2.084-1.312-3.138-.264-.668-.493-1.337-.714-1.985-.094-.274-.183-.533-.271-.784h-.029c-.287,0-.571.009-.844.018s-.55.018-.818.018a7.025,7.025,0,0,1-1.031-.065,10.309,10.309,0,0,1-1.792-.492c-.283-.1-.576-.194-.882-.287A19.483,19.483,0,0,0,10.569,24.755Zm19.987,3.1a6.8,6.8,0,0,1,2.668,2.989c.084.186.185.269.328.269a.674.674,0,0,0,.238-.055c.28-.111.569-.214.847-.313s.555-.2.829-.306c1.259-.5,2.545-1.007,3.789-1.5l.006,0,1.942-.77a6.839,6.839,0,0,1-.548-5.2,5.423,5.423,0,0,1,3.79-3.585l-.969-1.6c-.808-1.337-1.571-2.6-2.337-3.888-.2-.334-.386-.47-.647-.47a1.008,1.008,0,0,0-.3.051,4.822,4.822,0,0,1-1.232.171c-.146,0-.292.007-.434.007a8.087,8.087,0,0,1-6.346-2.61.767.767,0,0,0-.525-.192.537.537,0,0,0-.132.014c-.911.229-1.887.487-2.857.824-.872.3-1.743.646-2.587.977-.362.142-.737.289-1.106.431a5.378,5.378,0,0,1-.293,3.9,11.334,11.334,0,0,1-3.669,3.535q.668,1.644,1.335,3.285l1.4,3.457c.088-.014.158-.023.215-.031a1.032,1.032,0,0,0,.212-.04,7.234,7.234,0,0,1,2.488-.438A7.433,7.433,0,0,1,30.556,27.857ZM43.776,10.4a4.624,4.624,0,0,1-.407,1.108,4.655,4.655,0,0,1-.761.9c-.116.116-.226.226-.327.338.3.5.613,1.012.913,1.5.724,1.181,1.471,2.4,2.132,3.64A2.322,2.322,0,0,0,47.3,19.42a6.922,6.922,0,0,1,4.044,2.148A9.156,9.156,0,0,0,53.8,17.957a8.6,8.6,0,0,1-3.81-2.111c-1.66-1.537-2.036-3.109-1.179-4.946l-2.24-.519-.042-.01-2.569-.6C43.889,9.995,43.831,10.2,43.776,10.4Zm-22.923.274a4.866,4.866,0,0,1,2.975,1.053.673.673,0,0,0,.446.184,1.255,1.255,0,0,0,.4-.087c1.523-.526,3.076-1.045,4.579-1.546l.017-.005L30.976,9.7c.094-.031.184-.067.279-.1l.159-.061c-.291-1.364.227-2.4,1.73-3.465L30.92,5.2,28.858,4.4a2.871,2.871,0,0,1-1.422,1.843A8.236,8.236,0,0,1,23.167,7.46a8.715,8.715,0,0,1-1.612-.155.66.66,0,0,0-.117-.01c-.151,0-.338.041-.391.129a8.963,8.963,0,0,0-1.089,3.249h.094l.229,0,.268,0C20.667,10.669,20.763,10.67,20.853,10.675ZM181.942,50h-.049a1.943,1.943,0,0,1-1.379-.685c-.052-.054-.1-.11-.154-.167-.182-.2-.137-.546-.2-.86h1.38c.026.161.049.3.084.523h1.969v-2.25c-.637,0-1.252,0-1.866,0s-1.517-.74-1.522-1.246q-.007-.51-.006-1.019c0-.339,0-.678.006-1.017,0-.509.895-1.243,1.5-1.248h.091c.132,0,.266,0,.4.005l.263,0h.175c.094,0,.188,0,.282-.005l.2-.011.033,0c.035,0,.07-.005.1-.006h.1a1.639,1.639,0,0,1,.973.354c.042.031.084.062.126.1a1.136,1.136,0,0,1,.532.862,1.111,1.111,0,0,1-.065.374h-1.26c-.025-.179-.047-.337-.072-.518h-1.966v2.236h1.709a1.65,1.65,0,0,1,1.649,1.382c0,.32-.014.642-.014.962,0,.193.006.384.024.576a1.389,1.389,0,0,1,.007.16,1.26,1.26,0,0,1-.6,1.056l-.111.08-.015.011a1.548,1.548,0,0,1-.81.328c-.031,0-.063,0-.1,0h-.021c-.04,0-.081,0-.123-.007l-.029,0c-.069-.008-.14-.014-.21-.02s-.162-.009-.243-.01h-.083c-.053,0-.105,0-.158.007l-.028,0c-.051,0-.1.01-.151.018l-.025,0a2.079,2.079,0,0,1-.347.031Zm-26.648-.018h-.024a1.8,1.8,0,0,1-1.121-.392l-.051-.041c-.04-.031-.078-.065-.117-.1a1.185,1.185,0,0,1-.479-.935V48.5c.012-.806.014-1.612.014-2.418,0-.753,0-1.506,0-2.259,0-.161,0-.322,0-.483,0-.57.878-1.3,1.559-1.305.176,0,.353-.005.53-.008.118,0,.236,0,.353,0h.1c.182,0,.363.005.543.019l.09.007a2.531,2.531,0,0,1,.884.291,1.23,1.23,0,0,1,.751,1.212,5.881,5.881,0,0,1-.066.733h-1.276V43.206h-2.036v5.567h1.989V47.725h1.322a4.714,4.714,0,0,1,.065.69,1.306,1.306,0,0,1-.795,1.272,2.343,2.343,0,0,1-.781.265l-.04,0-.02,0-.021,0-.022,0h-.019l-.031,0h-.01c-.148.007-.3,0-.449,0s-.29-.009-.433,0h0l-.037,0h-.007l-.031,0-.02,0-.019,0-.038,0a2.505,2.505,0,0,1-.255.014Zm4.835-.543a1.113,1.113,0,0,1-.451-.913c.022-.589.017-1.188.013-1.768,0-.254,0-.508,0-.762s0-.535,0-.8c0-.631,0-1.283,0-1.926,0-.516.877-1.233,1.507-1.238h.058c.088,0,.178,0,.265,0l.046,0c.1,0,.213.006.32.006a3.1,3.1,0,0,0,.39-.021,2.817,2.817,0,0,1,.373-.025,1.9,1.9,0,0,1,1.523.7,1.037,1.037,0,0,1,.284.558c.022,1.818.016,3.667.011,5.456,0,.508-.891,1.243-1.51,1.249h-.082c-.121,0-.246,0-.365-.006h-.022c-.109,0-.219,0-.329,0a4.584,4.584,0,0,0-.46.019c-.081.007-.16.012-.236.012A1.85,1.85,0,0,1,160.129,49.442Zm.957-.668h1.971V43.184h-1.971Zm-25.564.688a1.173,1.173,0,0,1-.474-.956c.017-1.181.014-2.381.013-3.542q0-.809,0-1.616a1.68,1.68,0,0,1,1.6-1.316h.042c.1,0,.193,0,.29,0l.068,0c.128,0,.259.006.39.006.181,0,.329-.006.468-.02a2.1,2.1,0,0,1,.222-.012,1.743,1.743,0,0,1,1.235.511,1.139,1.139,0,0,1,.476.954c-.025.6-.02,1.206-.015,1.795q0,.367,0,.735,0,.393,0,.788c0,.621,0,1.261,0,1.891,0,.543-.878,1.27-1.536,1.276h-.058c-.139,0-.278,0-.383-.005h-.023c-.112,0-.223,0-.335,0-.179,0-.325.006-.459.019-.078.007-.156.011-.229.011A1.8,1.8,0,0,1,135.522,49.463Zm.937-.685h1.976V43.186h-1.976Zm6.5,1.2h-.023a1.807,1.807,0,0,1-1.225-.5,1.246,1.246,0,0,1-.5-1.025v-.02c.012-.968.014-1.937.014-2.905s0-1.937,0-2.905v-.577h1.341v6.728h2.03v-6.7h1.394c.009.156.025.316.025.477q0,1.893,0,3.786,0,1.137,0,2.272a1.711,1.711,0,0,1-1.632,1.354c-.129,0-.258,0-.387-.006l-.252-.005H143.6c-.066,0-.131,0-.2,0s-.148.007-.222.014l-.113.008-.1,0Zm-14.781-.008c-.106,0-.211,0-.315-.014-.041,0-.083-.009-.123-.015-.158-.023-.32-.219-.4-.365-.737-1.374-1.458-2.757-2.183-4.135a1.148,1.148,0,0,0-.339-.428v4.909h-1.331V42.033c.182,0,.357.008.528.008h.041c.065,0,.13,0,.193-.007l.084-.006.052,0h.065a.535.535,0,0,1,.5.277l.022.036.018.033c0,.007.008.014.012.022.717,1.4,1.456,2.794,2.189,4.188a1.044,1.044,0,0,0,.342.4V42.065h1.317v7.9c-.211,0-.425.012-.637.012Zm-15.055,0c-.564,0-.656-.132-.822-.743q-.027-.1-.057-.213-.865-3.293-1.717-6.588a3.505,3.505,0,0,1-.055-.37h1.327c.437,1.67.878,3.356,1.318,5.042l.108-.027c.433-1.661.865-3.323,1.305-5.009h1.363q-1.019,3.939-2.023,7.822a.632.632,0,0,1-.148.065c-.24.012-.433.022-.59.022Zm-16.727-.008h-.013l-.981,0V42.035h1.03l1,0c.572,0,1.037,0,1.466.011a2.013,2.013,0,0,1,1.266,1.185c0,2.039,0,3.856,0,5.554,0,.369-.918,1.173-1.344,1.178s-.892.009-1.466.009Zm.4-1.19h1.981V43.189H96.79Zm70.522-3.206-.118.023v4.334h-1.308V42.035c.115,0,.232,0,.351-.007l.2,0h.094l.162,0a2.853,2.853,0,0,1,.292.026.656.656,0,0,1,.386.36c.549,1.206,1.076,2.419,1.611,3.63.074.168.158.335.286.606.414-.933.786-1.772,1.157-2.612.165-.372.328-.745.492-1.118l.046-.105c.278-.625.377-.787.916-.79h.013c.067,0,.139,0,.218.006.118.005.252.015.406.027l.131.011v7.858h-1.3V45.706l-.182-.031-1.9,4.264Zm-59.578,4.365V42.049h1.273v7.886Zm-1.509,0h-1.249V46.589h-2.054v3.342h-1.345v-7.9h1.919c.595,0,1.078,0,1.519.008.406.006,1.288.8,1.293,1.161l0,.156c.009.665.019,1.353-.012,2.029a.936.936,0,0,1-.162.41,1.06,1.06,0,0,0-.056.1c.029.126.062.243.094.356a2.571,2.571,0,0,1,.128.642c.015.731.006,1.475,0,2.194q0,.367-.007.733a.135.135,0,0,1-.032.065c-.01.014-.022.031-.033.049h0Zm-3.3-4.548h1.991V43.2h-1.991Zm14.4,4.547V42.06h4.688v1.09h-3.328v2.268h1.979V46.56h-1.987v2.234h3.319v1.14Zm31.76,0V43.16h-1.669V42.046h4.7v1.108h-1.641v6.778Zm-62.558,0V48.854l.63-.076V43.215l-.651-.1V42.059h2.679v1.062l-.626.087v5.567l.632.077v1.076Zm-4.881,0H79V48.849a1.554,1.554,0,0,0,.188.014c.482,0,.548-.319.612-.626.011-.051.022-.1.034-.153q.418-1.67.837-3.344l.671-2.68h1.381q.821,3.244,1.643,6.5l.058.229.408.036.252.023v1.078H82.409V48.854l.539-.068.081-.01-.084-.41c-.042-.209-.085-.418-.13-.639h-1.54l-.166.675-.086.349.621.109v1.065h0Zm-.111-3.385h1.006c-.155-.68-.3-1.308-.439-1.936h-.131Zm92.539,3.384V42.064h4.713v1.1h-3.323v2.252h1.97v1.129h-1.965v2.269h3.327v1.115ZM55.144,49.587h-.056a2.917,2.917,0,0,1-2.631-2.012c-.007-.018-.014-.037-.021-.055l-.018-.053-.012-.035c-.011-.032-.021-.065-.031-.1a9.213,9.213,0,0,1-.21-1.1,4,4,0,0,1,1.682-3.516l.032-.022.029-.019.007,0,.03-.019a2.608,2.608,0,0,1,1.364-.4h.049a2.659,2.659,0,0,1,1.974.95c.029.033.058.068.085.1a4.157,4.157,0,0,1-.3,5.42l-.053.052-.037.034-.082.074a2.741,2.741,0,0,1-1.786.7ZM7.035,46.5H7.018a2.572,2.572,0,0,1-1.911-.911c-.028-.032-.056-.065-.084-.1a4.087,4.087,0,0,1-.868-2.57,4.13,4.13,0,0,1,1.029-2.788l.05-.053.042-.043a2.657,2.657,0,0,1,1.86-.8H7.2a2.584,2.584,0,0,1,2.159,1.275c.023.037.045.074.067.113l.031.058a9.766,9.766,0,0,1,.622,1.795c-.092,1.614-.44,2.7-1.443,3.463q-.068.051-.135.1a2.6,2.6,0,0,1-1.437.468ZM236.331,35h-.016a7.4,7.4,0,0,1-2.961-.613,14.351,14.351,0,0,1-1.953-1.224l1.766-1.756c.062.08.128.156.2.227a3.645,3.645,0,0,0,2.72.992h.123a2.821,2.821,0,0,0,3.073-2.65,12.475,12.475,0,0,0,.094-1.511q0-1.3,0-2.593t0-2.592q0-2.593.013-5.186a19.055,19.055,0,0,1,.222-2.021h2.711a4.538,4.538,0,0,1,.043.456c-.008,4.272-.005,8.545-.036,12.819a5.243,5.243,0,0,1-4.017,5.418,8.78,8.78,0,0,1-1.918.235Zm-48.108-.022h-.049a8.164,8.164,0,0,1-2.916-.546l-.064-.025a4.292,4.292,0,0,1-1.913-1.423l1.672-1.65.041.051.065.078c.052.06.105.119.16.174a3.683,3.683,0,0,0,2.732.989h.094a2.826,2.826,0,0,0,3.078-2.646,12.7,12.7,0,0,0,.092-1.57q0-1.281,0-2.563t0-2.563q0-2.564.014-5.126a20.239,20.239,0,0,1,.22-2.084h2.721c.012.22.031.424.031.629-.007,4.175,0,8.351-.039,12.526a6.953,6.953,0,0,1-.294,2,4.906,4.906,0,0,1-4.182,3.628l-.189.028a9.2,9.2,0,0,1-1.26.089Zm47.088-5.292h-.043a4.809,4.809,0,0,1-4.447-2.81c-.006-.012-.013-.024-.018-.037q-.034-.066-.065-.135a9.738,9.738,0,0,1-.977-4.1,8.125,8.125,0,0,1,1.112-4.084l.036-.062.025-.042.019-.031c.014-.024.03-.049.045-.072a5.483,5.483,0,0,1,4.577-2.424h.085a5.736,5.736,0,0,1,2.146.42l.09.037c.3.128.453.277.451.6,0,.016,0,.032,0,.049-.013.258-.017.517-.017.782,0,.386.008.784.008,1.207-.152-.088-.251-.134-.338-.2l-.04-.029a3.068,3.068,0,0,0-1.745-.6h-.055a2.723,2.723,0,0,0-2.173,1.234l-.048.067a5.382,5.382,0,0,0-.93,3.14,7.657,7.657,0,0,0,.061.936,6.738,6.738,0,0,0,.571,2,2.956,2.956,0,0,0,2.587,1.843h.058a3.234,3.234,0,0,0,2.049-.853c0,.415,0,.8,0,1.17s0,.725-.019,1.08c-.006.121-.186.284-.325.343l-.1.041-.049.02-.038.015-.019.007a6.876,6.876,0,0,1-2.459.488Zm-48.15,0h-.043a4.805,4.805,0,0,1-4.426-2.763l-.019-.037c-.017-.034-.034-.068-.05-.1s-.024-.05-.036-.076a9.732,9.732,0,0,1-.977-4.1,8.119,8.119,0,0,1,1.111-4.086l.039-.067.019-.032c.028-.046.057-.092.086-.137a5.493,5.493,0,0,1,4.6-2.395h.041a5.759,5.759,0,0,1,1.923.334c.107.039.212.08.318.125.3.129.451.278.448.6,0,.016,0,.032,0,.049-.013.259-.017.518-.017.785,0,.389.008.794.008,1.236-.165-.106-.23-.145-.291-.19l-.035-.025-.094-.065-.042-.028a3.1,3.1,0,0,0-1.683-.551h-.051a2.7,2.7,0,0,0-2.154,1.221c-.027.038-.053.076-.079.114l-.038.058a5.421,5.421,0,0,0-.872,3.028,6.7,6.7,0,0,0,.093,1.066,6.834,6.834,0,0,0,.824,2.341c.018.031.037.061.057.092l.031.047c.018.027.035.053.054.078l.025.035a2.665,2.665,0,0,0,2.133,1.15h.054a3.216,3.216,0,0,0,2.01-.817l.045-.038c0,.367,0,.719,0,1.062,0,.44,0,.866-.016,1.292,0,.081-.188.182-.307.231-.065.028-.131.054-.2.079l-.011,0a6.9,6.9,0,0,1-2.461.487Zm-66.315-.015h-.061a3.756,3.756,0,0,1-3.567-2.733q-.028-.117-.049-.238a6.045,6.045,0,0,1-.088-1.011c0-2.261,1.454-3.82,4.059-4.249.764-.126,1.551-.124,2.4-.186v1.7a15.961,15.961,0,0,0-1.716.2,2.379,2.379,0,0,0-1.646,3.64c.277.451.878.716,1.436,1.149v1.638a3.6,3.6,0,0,1-.768.082Zm169.246-.013h-.022a6.149,6.149,0,0,1-3.359-.953l-.112-.072c-.086-.057-.171-.116-.256-.178l1.163-1.786c1.027.322,2,.63,3.062.964v2.011c-.158.01-.314.014-.468.014Zm-13.654-.019h-.006l-.189,0c-.071,0-.143,0-.214-.007a6.484,6.484,0,0,1-6.206-6.158q-.024-.339-.024-.67a6.95,6.95,0,0,1,2.892-5.841,5.068,5.068,0,0,1,2.921-1.042c0,.355,0,.7,0,1.032s0,.664-.014.992a.439.439,0,0,1-.257.311,3.662,3.662,0,0,0-2.551,3.053,8.071,8.071,0,0,0-.177,1.652,6.954,6.954,0,0,0,.077,1.057c.009.061.02.121.031.18,0,.012,0,.024.007.037a3.611,3.611,0,0,0,3.633,3.086h.038a4.992,4.992,0,0,0,1.427-.223l.113-.035a16.747,16.747,0,0,0,1.934-.906l1.009,1.485a5.317,5.317,0,0,1-4.4,2Zm-169.236,0c-.115,0-.23,0-.347-.007a6.029,6.029,0,0,1-5.305-3.3,7.268,7.268,0,0,1-.93-3.556,7.178,7.178,0,0,1,2.882-5.8l.041-.03c.046-.033.093-.066.139-.1l.049-.032c.076-.05.154-.1.232-.147a4.744,4.744,0,0,1,2.256-.707h.158l.068,0c0,.336,0,.672,0,1.009s0,.675-.013,1.012a.392.392,0,0,1-.241.268,3.711,3.711,0,0,0-2.519,2.82,6.217,6.217,0,0,0-.275,1.841,6.764,6.764,0,0,0,.162,1.445,3.679,3.679,0,0,0,3.632,2.952h.052a4.431,4.431,0,0,0,.927-.1l.023,0,.027-.006.056-.014.038-.009a18.615,18.615,0,0,0,2.425-.975c.282.413.633.926.983,1.441l-.061.075a5.388,5.388,0,0,1-4.367,1.922H107.2Zm184.463-2.048c.008-.126.267-.285.441-.343.941-.311,1.354-.821,1.259-1.595-.079-.642-.592-.931-1.11-1.111a.831.831,0,0,1-.621-1.006c.039-.54.014-1.085.018-1.629a.658.658,0,0,1,.063-.149c1.845.589,3.69,1.154,4.284,3.276v1.282a4.287,4.287,0,0,1-3.708,3.207c-.192.034-.388.051-.647.085C291.645,28.9,291.622,28.244,291.666,27.591ZM153.637,29.561h-1.264c-.1,0-.194-.015-.351-.03-.012-.245-.032-.469-.033-.694-.023-2.639-.04-5.278-.069-7.918a4.313,4.313,0,0,0-.127-.921,2.114,2.114,0,0,0-2.2-1.876h-.038c-.1,0-.211,0-.32.014l-.09.008c-.552.059-1.092.211-1.689.33,0-.284-.008-.568-.007-.85,0-.219.005-.437.022-.655a.618.618,0,0,1,.319-.406A5.674,5.674,0,0,1,150.3,15.9h.048a4.93,4.93,0,0,1,3.418,1.547,3.765,3.765,0,0,1,1.141,2.687c.084,3.084.067,6.17.087,9.256,0,.033-.032.068-.085.172Zm109.323-.03V28.88q0-.688,0-1.377V26.355c0-1.606,0-3.213-.024-4.819a7.038,7.038,0,0,0-.272-1.894,1.955,1.955,0,0,0-1.99-1.524h-.058c-.088,0-.18,0-.274.012-.613.049-1.218.206-1.894.327,0-.267-.006-.539-.006-.812,0-.24,0-.482.021-.724a.557.557,0,0,1,.309-.358l.108-.048.078-.033a6.419,6.419,0,0,1,2.443-.59h.057a4.7,4.7,0,0,1,3.369,1.636l.052.052a3.812,3.812,0,0,1,1.036,2.676c.027,1.342.034,2.684.034,4.033,0,1.733-.012,3.477-.012,5.242Zm-63.681,0v-17.6h2.94v17.6Zm-32.85,0V16.046h.588l.549,0h.075l.572,0q.3,0,.608.012a.434.434,0,0,1,.308.266,5.791,5.791,0,0,1,.26,1.367q.015,2.87.013,5.739t0,5.74c0,.1-.014.193-.027.36Zm-7.251,0V16.091h2.94V29.53Zm-26.8,0V16.089h2.647a9.37,9.37,0,0,1,.276,1.6q.018,2.857.015,5.712t0,5.712a3.59,3.59,0,0,1-.052.418Zm90.728,0V28.46q0-1.443,0-2.888c0-1.258,0-2.517-.02-3.776a8.534,8.534,0,0,0-.248-2.016c-.018-.068-.037-.134-.059-.2a0,0,0,0,0,0,0,1.983,1.983,0,0,0-2.043-1.46h-.024c-.107,0-.219.005-.333.016-.591.055-1.173.211-1.824.333,0-.275-.006-.552-.006-.826,0-.242,0-.484.022-.725.01-.126.186-.283.326-.353l.04-.021.043-.021.092-.045.06-.028.012-.005A5.488,5.488,0,0,1,221.4,15.9h.059a4.814,4.814,0,0,1,3.484,1.612l.1.107a4.54,4.54,0,0,1,1.051,3.152c.027,1.427.033,2.855.033,4.282,0,1.249,0,2.5,0,3.748v.535a.793.793,0,0,1-.057.19Zm-48.152,0v-.392c0-.1,0-.2,0-.3-.029-2.719-.052-5.438-.1-8.155a3.53,3.53,0,0,0-.228-1.077,1.973,1.973,0,0,0-1.991-1.493H172.6c-.085,0-.173,0-.263.011-.633.049-1.255.209-1.941.329,0-.274-.008-.554-.008-.833,0-.217.006-.435.024-.652a.635.635,0,0,1,.328-.408l.04-.021.064-.031.119-.058.051-.023.014-.006a5.457,5.457,0,0,1,2.233-.524h.05a4.783,4.783,0,0,1,3.42,1.56l.005.005c.031.031.061.062.091.095l.055.058a4.4,4.4,0,0,1,1.038,3.037c.03,1.547.036,3.1.036,4.643,0,1.184,0,2.367,0,3.55,0,.183,0,.365,0,.546,0,.033-.032.068-.066.132Zm79.5,0V16.074h2.72a17.546,17.546,0,0,1,.226,1.96q.016,2.693.013,5.386t0,5.387v.719Zm-110.971,0V16.069h2.646a8.659,8.659,0,0,1,.289,1.552q.019,2.9.016,5.792t0,5.792a3.041,3.041,0,0,1-.037.318Zm59.859,0V27.4h7.317v2.118Zm-116.631,0v-.133h-.14V11.866h2.911v.052h.193V27.229h8.067v.123h.342v2.169Zm160.47,0V16.074h2.956V29.519Zm-32.6-.009V16.044l.659,0h.575c.368,0,.732,0,1.1.015a.493.493,0,0,1,.369.265,5.476,5.476,0,0,1,.261,1.367q.015,2.87.013,5.741t0,5.741c0,.1-.013.193-.023.339Zm-135.3,0h0V16.091h2.96V29.509Zm47.939-.011a.281.281,0,0,1-.04,0,.12.12,0,0,1-.027-.005,2.767,2.767,0,0,1-1.868-1.673,4.2,4.2,0,0,1-2.6,1.647c0-.3,0-.579,0-.856,0-.245,0-.484.018-.724.006-.105.164-.229.28-.3.238-.14.515-.225.741-.38a1.7,1.7,0,0,0,.879-1.486c0-.035,0-.069,0-.105-.08-1.822-.012-3.649-.075-5.473-.052-1.5-.463-2.2-1.869-2.207h-.042a6.229,6.229,0,0,0-.77.058l-.135.018a13.98,13.98,0,0,0-2.631.933l-1.021-1.5a7.115,7.115,0,0,1,.775-.527l.089-.045.105-.05a8.628,8.628,0,0,1,3.689-.88h.113a8.611,8.611,0,0,1,1.547.151,3.582,3.582,0,0,1,3.035,3.627c.122,1.78.111,3.569.167,5.353a9.647,9.647,0,0,0,.107,1.566,9.722,9.722,0,0,0,.486,1.383l.186-.024a12.986,12.986,0,0,1-.651,1.289.233.233,0,0,1-.04.047.7.7,0,0,1-.326.155.506.506,0,0,1-.107.012ZM1.452,27.871H1.431C.595,27.86,0,27.171,0,26.059v-.026a4.781,4.781,0,0,1,2.551-3.883l.034-.014a1.984,1.984,0,0,1,.714-.155h.06c.77.019,1.323.608,1.382,1.586,0,.062.005.124.005.187A4.7,4.7,0,0,1,2.211,27.7a1.977,1.977,0,0,1-.738.167Zm285.431-6.095a2.846,2.846,0,0,1-.612-1.853,3.8,3.8,0,0,1,1.051-2.647,5.3,5.3,0,0,1,3.287-1.45c0,.372,0,.735,0,1.094s0,.715-.019,1.07c-.005.112-.194.265-.332.318a1.448,1.448,0,0,0-1,1.325c0,.052-.007.1-.007.152a1.324,1.324,0,0,0,.851,1.26.785.785,0,0,1,.523.818c0,.031,0,.065,0,.1-.013.25-.017.5-.017.757,0,.374.008.757.008,1.166A7.131,7.131,0,0,1,286.882,21.776ZM28.649,19.955c0-2.154,2.012-3.9,4.5-3.9s4.5,1.746,4.5,3.9-2.013,3.9-4.5,3.9S28.649,22.109,28.649,19.955ZM62.465,23.82h-.009a1.852,1.852,0,0,1-.495-.077c-.041-.012-.083-.025-.125-.04l-.022-.008a4.8,4.8,0,0,1-2.769-3.86c-.021-.853.428-1.384,1.118-1.4h.046a1.6,1.6,0,0,1,.347.042c.031.007.062.014.094.023a4.69,4.69,0,0,1,2.925,3.918c0,.891-.412,1.394-1.093,1.4Zm211.488-.071V21.676h5.573a2.092,2.092,0,0,0,.028-.346,3.43,3.43,0,0,0-2.365-3.028c-.439-.118-.566-.3-.566-.65,0-.037,0-.075,0-.114.013-.21.016-.42.016-.63,0-.308-.008-.616-.008-.925,3.7.179,5.829,3.5,5.839,6.509a5.991,5.991,0,0,1-.128,1.258Zm-169.17-.005V21.677h5.59a2.584,2.584,0,0,0,.031-.413c-.008-1.314-1.047-2.447-2.888-3.155V15.982h.158c3.237.059,6.017,3.705,5.613,7.277q-.027.243-.075.484Zm98.543-2.193V19.69h6.53v1.86Zm-66.979-2.668c0-.3-.006-.626-.006-.974s0-.71.027-1.074c.008-.143.254-.358.423-.394,1.086-.236,2.182-.429,3.372-.656v3.1Zm155.323-.8V15.818a7.517,7.517,0,0,1,3.857,1.093l-.924,1.877ZM203.323,14.03v-2.1h7.312v2.1Zm-42.681-.621H160.6a1.664,1.664,0,0,1-1.7-1.676A1.731,1.731,0,0,1,160.618,10h.094a1.753,1.753,0,0,1,1.7,1.706v.023a1.693,1.693,0,0,1-1.765,1.679Zm88.024,0h-.023a1.706,1.706,0,0,1-1.741-1.675A1.771,1.771,0,0,1,248.624,10h.08a1.738,1.738,0,0,1,1.73,1.732,1.672,1.672,0,0,1-1.76,1.677Zm-167.918,0h-.012A1.665,1.665,0,0,1,79,11.74,1.735,1.735,0,0,1,80.719,10h.1a1.759,1.759,0,0,1,1.708,1.723,1.7,1.7,0,0,1-1.761,1.685ZM49.794,7.161a1.211,1.211,0,0,1-.2-.637.491.491,0,0,1,.046-.235.858.858,0,0,1,.575-.318.917.917,0,0,1,.16-.015h.017l.049,0A5.246,5.246,0,0,1,54.22,8.2a1.01,1.01,0,0,1,.151.551.563.563,0,0,1-.062.278c-.136.22-.51.286-.686.372A5.692,5.692,0,0,1,49.794,7.161ZM13.456,7.079l-.049,0a.6.6,0,0,1-.065-.01.92.92,0,0,1-.2-.065.884.884,0,0,1-.425-.365.294.294,0,0,1-.024-.124,1.171,1.171,0,0,1,.275-.663,5.621,5.621,0,0,1,3.552-1.776,5.12,5.12,0,0,1,.526.033c.412.068.637.278.641.557a.867.867,0,0,1-.21.523A4.794,4.794,0,0,1,15.026,6.8a5.467,5.467,0,0,1-1.564.274ZM28.388,1.493c-.21-.063-.364-.315-.544-.482.167-.184.3-.437.5-.541l.04-.021a4.772,4.772,0,0,1,2.1-.45h.07c.122,0,.243,0,.365.01l.2.011.063.005.176.014A4.1,4.1,0,0,1,32.5.328c.212.086.368.32.549.488-.181.194-.332.5-.55.561-.752.222-1.527.363-2.27.528C29.571,1.764,28.968,1.668,28.388,1.493Z" fill="#fff"/>
</svg>
