<?xml version="1.0" encoding="utf-8"?>
<svg width="16px" height="16px" viewBox="0 0 16 16" version="1.1" xmlns:xlink="http://www.w3.org/1999/xlink" xmlns="http://www.w3.org/2000/svg">
  <path d="M14.3082 0C13.8747 0 13.4425 0.169833 13.1123 0.49999L12.8296 0.782592L15.2215 3.17385C15.2201 3.17521 15.5042 2.89124 15.5042 2.89124C16.166 2.22957 16.1646 1.1603 15.5042 0.49999C15.1726 0.169833 14.7417 0 14.3082 0ZM12.2968 1.40216C12.218 1.41303 12.1446 1.45243 12.0902 1.51086L0.804878 12.8041C0.76003 12.8449 0.726054 12.8978 0.707028 12.9563L0.0112053 15.5649C-0.0200524 15.6845 0.0152825 15.8108 0.10226 15.8978C0.189238 15.9847 0.315628 16.0201 0.435222 15.9888L3.04456 15.2932C3.10299 15.2742 3.156 15.2402 3.19677 15.1954L14.493 3.91298C14.6316 3.77847 14.633 3.55701 14.4984 3.41843C14.3639 3.27984 14.1424 3.27848 14.0038 3.41299L2.77275 14.641L1.35936 13.228L12.5904 1.99998C12.695 1.89944 12.7263 1.74319 12.6678 1.61004C12.6094 1.47689 12.4749 1.39401 12.3294 1.40216C12.3186 1.40216 12.3077 1.40216 12.2968 1.40216Z" id="Shape" fill="#FFFFFF" stroke="none" />
</svg>